<mxfile host="app.diagrams.net" agent="Mozilla/5.0 (X11; Linux x86_64) AppleWebKit/537.36 (KHTML, like Gecko) Chrome/139.0.0.0 Safari/537.36" version="28.1.0">
  <diagram name="PÃ¡gina-1" id="AYp_iAeC-qFB2LqofVe3">
    <mxGraphModel dx="2015" dy="710" grid="1" gridSize="10" guides="1" tooltips="1" connect="1" arrows="1" fold="1" page="1" pageScale="1" pageWidth="827" pageHeight="1169" math="0" shadow="0">
      <root>
        <mxCell id="0" />
        <mxCell id="1" parent="0" />
        <mxCell id="X41n3RMcrtdXLVw2FXBI-27" value="Azure Functions" style="swimlane;startSize=0;verticalAlign=top;align=center;fillColor=#fff2cc;strokeColor=#d6b656;fillStyle=auto;swimlaneFillColor=#FFFFCC;horizontal=0;fontStyle=0;shadow=1;" vertex="1" parent="1">
          <mxGeometry x="-120" y="420" width="890" height="140" as="geometry" />
        </mxCell>
        <mxCell id="X41n3RMcrtdXLVw2FXBI-13" style="edgeStyle=orthogonalEdgeStyle;rounded=0;orthogonalLoop=1;jettySize=auto;html=1;shadow=1;" edge="1" parent="1" source="X41n3RMcrtdXLVw2FXBI-1" target="X41n3RMcrtdXLVw2FXBI-4">
          <mxGeometry relative="1" as="geometry" />
        </mxCell>
        <mxCell id="X41n3RMcrtdXLVw2FXBI-1" value="Backoffice" style="rounded=0;whiteSpace=wrap;html=1;shadow=1;" vertex="1" parent="1">
          <mxGeometry x="400" y="80" width="120" height="60" as="geometry" />
        </mxCell>
        <mxCell id="X41n3RMcrtdXLVw2FXBI-12" style="edgeStyle=orthogonalEdgeStyle;rounded=0;orthogonalLoop=1;jettySize=auto;html=1;dashed=1;shadow=1;strokeColor=#808080;" edge="1" parent="1" source="X41n3RMcrtdXLVw2FXBI-2" target="X41n3RMcrtdXLVw2FXBI-4">
          <mxGeometry relative="1" as="geometry" />
        </mxCell>
        <mxCell id="X41n3RMcrtdXLVw2FXBI-2" value="Frontend" style="rounded=0;whiteSpace=wrap;html=1;dashed=1;fillColor=#f5f5f5;fontColor=#808080;strokeColor=#808080;shadow=1;" vertex="1" parent="1">
          <mxGeometry x="120" y="80" width="120" height="60" as="geometry" />
        </mxCell>
        <mxCell id="X41n3RMcrtdXLVw2FXBI-15" style="edgeStyle=orthogonalEdgeStyle;rounded=0;orthogonalLoop=1;jettySize=auto;html=1;shadow=1;" edge="1" parent="1" source="X41n3RMcrtdXLVw2FXBI-3" target="X41n3RMcrtdXLVw2FXBI-6">
          <mxGeometry relative="1" as="geometry">
            <Array as="points">
              <mxPoint x="160" y="360" />
            </Array>
          </mxGeometry>
        </mxCell>
        <mxCell id="X41n3RMcrtdXLVw2FXBI-16" style="edgeStyle=orthogonalEdgeStyle;rounded=0;orthogonalLoop=1;jettySize=auto;html=1;shadow=1;" edge="1" parent="1" source="X41n3RMcrtdXLVw2FXBI-3" target="X41n3RMcrtdXLVw2FXBI-7">
          <mxGeometry relative="1" as="geometry" />
        </mxCell>
        <mxCell id="X41n3RMcrtdXLVw2FXBI-17" style="edgeStyle=orthogonalEdgeStyle;rounded=0;orthogonalLoop=1;jettySize=auto;html=1;dashed=1;shadow=1;strokeColor=#808080;" edge="1" parent="1" source="X41n3RMcrtdXLVw2FXBI-3" target="X41n3RMcrtdXLVw2FXBI-8">
          <mxGeometry relative="1" as="geometry">
            <Array as="points">
              <mxPoint x="480" y="360" />
            </Array>
          </mxGeometry>
        </mxCell>
        <mxCell id="X41n3RMcrtdXLVw2FXBI-18" style="edgeStyle=orthogonalEdgeStyle;rounded=0;orthogonalLoop=1;jettySize=auto;html=1;dashed=1;shadow=1;strokeColor=#808080;" edge="1" parent="1" source="X41n3RMcrtdXLVw2FXBI-3" target="X41n3RMcrtdXLVw2FXBI-11">
          <mxGeometry relative="1" as="geometry">
            <Array as="points">
              <mxPoint x="640" y="340" />
            </Array>
          </mxGeometry>
        </mxCell>
        <mxCell id="X41n3RMcrtdXLVw2FXBI-19" style="edgeStyle=orthogonalEdgeStyle;rounded=0;orthogonalLoop=1;jettySize=auto;html=1;dashed=1;shadow=1;strokeColor=#808080;" edge="1" parent="1" source="X41n3RMcrtdXLVw2FXBI-3" target="X41n3RMcrtdXLVw2FXBI-10">
          <mxGeometry relative="1" as="geometry">
            <Array as="points">
              <mxPoint y="340" />
            </Array>
          </mxGeometry>
        </mxCell>
        <mxCell id="X41n3RMcrtdXLVw2FXBI-3" value="BFF" style="rounded=0;whiteSpace=wrap;html=1;fillColor=#d5e8d4;strokeColor=#82b366;shadow=1;" vertex="1" parent="1">
          <mxGeometry x="260" y="320" width="120" height="60" as="geometry" />
        </mxCell>
        <mxCell id="X41n3RMcrtdXLVw2FXBI-14" style="edgeStyle=orthogonalEdgeStyle;rounded=0;orthogonalLoop=1;jettySize=auto;html=1;shadow=1;" edge="1" parent="1" source="X41n3RMcrtdXLVw2FXBI-4" target="X41n3RMcrtdXLVw2FXBI-3">
          <mxGeometry relative="1" as="geometry" />
        </mxCell>
        <mxCell id="X41n3RMcrtdXLVw2FXBI-36" style="edgeStyle=orthogonalEdgeStyle;rounded=0;orthogonalLoop=1;jettySize=auto;html=1;fillColor=#f5f5f5;strokeColor=#808080;fontColor=#808080;dashed=1;" edge="1" parent="1" source="X41n3RMcrtdXLVw2FXBI-4" target="X41n3RMcrtdXLVw2FXBI-35">
          <mxGeometry relative="1" as="geometry" />
        </mxCell>
        <mxCell id="X41n3RMcrtdXLVw2FXBI-4" value="API Gateway" style="rounded=0;whiteSpace=wrap;html=1;fillColor=#f5f5f5;fontColor=#808080;strokeColor=#808080;dashed=1;shadow=1;" vertex="1" parent="1">
          <mxGeometry x="260" y="200" width="120" height="60" as="geometry" />
        </mxCell>
        <mxCell id="X41n3RMcrtdXLVw2FXBI-23" style="edgeStyle=orthogonalEdgeStyle;rounded=0;orthogonalLoop=1;jettySize=auto;html=1;shadow=1;" edge="1" parent="1" source="X41n3RMcrtdXLVw2FXBI-6" target="X41n3RMcrtdXLVw2FXBI-21">
          <mxGeometry relative="1" as="geometry">
            <Array as="points">
              <mxPoint x="160" y="620" />
            </Array>
          </mxGeometry>
        </mxCell>
        <mxCell id="X41n3RMcrtdXLVw2FXBI-6" value="Product&lt;div&gt;Functions&lt;/div&gt;" style="verticalAlign=middle;align=center;spacingTop=8;spacingLeft=2;spacingRight=12;shape=cube;size=10;direction=south;fontStyle=0;html=1;whiteSpace=wrap;fillColor=#ffe6cc;strokeColor=#d79b00;shadow=1;" vertex="1" parent="1">
          <mxGeometry x="100" y="460" width="120" height="60" as="geometry" />
        </mxCell>
        <mxCell id="X41n3RMcrtdXLVw2FXBI-24" style="edgeStyle=orthogonalEdgeStyle;rounded=0;orthogonalLoop=1;jettySize=auto;html=1;shadow=1;" edge="1" parent="1" source="X41n3RMcrtdXLVw2FXBI-7" target="X41n3RMcrtdXLVw2FXBI-21">
          <mxGeometry relative="1" as="geometry" />
        </mxCell>
        <mxCell id="X41n3RMcrtdXLVw2FXBI-7" value="Warehouse&lt;div&gt;Functions&lt;/div&gt;" style="verticalAlign=middle;align=center;spacingTop=8;spacingLeft=2;spacingRight=12;shape=cube;size=10;direction=south;fontStyle=0;html=1;whiteSpace=wrap;fillColor=#ffe6cc;strokeColor=#d79b00;shadow=1;" vertex="1" parent="1">
          <mxGeometry x="260" y="460" width="120" height="60" as="geometry" />
        </mxCell>
        <mxCell id="X41n3RMcrtdXLVw2FXBI-25" style="edgeStyle=orthogonalEdgeStyle;rounded=0;orthogonalLoop=1;jettySize=auto;html=1;dashed=1;shadow=1;strokeColor=#808080;" edge="1" parent="1" source="X41n3RMcrtdXLVw2FXBI-8" target="X41n3RMcrtdXLVw2FXBI-21">
          <mxGeometry relative="1" as="geometry">
            <Array as="points">
              <mxPoint x="470" y="620" />
            </Array>
          </mxGeometry>
        </mxCell>
        <mxCell id="X41n3RMcrtdXLVw2FXBI-8" value="Stock&lt;div&gt;Functions&lt;/div&gt;" style="verticalAlign=middle;align=center;spacingTop=8;spacingLeft=2;spacingRight=12;shape=cube;size=10;direction=south;fontStyle=0;html=1;whiteSpace=wrap;fillColor=#f5f5f5;fontColor=#808080;strokeColor=#808080;dashed=1;shadow=1;" vertex="1" parent="1">
          <mxGeometry x="420" y="460" width="120" height="60" as="geometry" />
        </mxCell>
        <mxCell id="X41n3RMcrtdXLVw2FXBI-10" value="Notification&lt;div&gt;Functions&lt;/div&gt;" style="verticalAlign=middle;align=center;spacingTop=8;spacingLeft=2;spacingRight=12;shape=cube;size=10;direction=south;fontStyle=0;html=1;whiteSpace=wrap;fillColor=#f5f5f5;fontColor=#808080;strokeColor=#808080;dashed=1;shadow=1;" vertex="1" parent="1">
          <mxGeometry x="-60" y="460" width="120" height="60" as="geometry" />
        </mxCell>
        <mxCell id="X41n3RMcrtdXLVw2FXBI-26" style="edgeStyle=orthogonalEdgeStyle;rounded=0;orthogonalLoop=1;jettySize=auto;html=1;dashed=1;shadow=1;strokeColor=#808080;" edge="1" parent="1" source="X41n3RMcrtdXLVw2FXBI-11" target="X41n3RMcrtdXLVw2FXBI-21">
          <mxGeometry relative="1" as="geometry">
            <Array as="points">
              <mxPoint x="640" y="640" />
            </Array>
          </mxGeometry>
        </mxCell>
        <mxCell id="X41n3RMcrtdXLVw2FXBI-11" value="Report&lt;br&gt;&lt;div&gt;Functions&lt;/div&gt;" style="verticalAlign=middle;align=center;spacingTop=8;spacingLeft=2;spacingRight=12;shape=cube;size=10;direction=south;fontStyle=0;html=1;whiteSpace=wrap;fillColor=#f5f5f5;fontColor=#808080;strokeColor=#808080;dashed=1;shadow=1;" vertex="1" parent="1">
          <mxGeometry x="580" y="460" width="120" height="60" as="geometry" />
        </mxCell>
        <mxCell id="X41n3RMcrtdXLVw2FXBI-21" value="Oracle DB" style="shape=cylinder3;whiteSpace=wrap;html=1;boundedLbl=1;backgroundOutline=1;size=15;fillColor=#e1d5e7;strokeColor=#9673a6;shadow=1;" vertex="1" parent="1">
          <mxGeometry x="260" y="600" width="120" height="60" as="geometry" />
        </mxCell>
        <mxCell id="X41n3RMcrtdXLVw2FXBI-28" value="Blob Storage" style="shape=cylinder3;whiteSpace=wrap;html=1;boundedLbl=1;backgroundOutline=1;size=15;fillColor=#f5f5f5;strokeColor=#808080;shadow=1;fontColor=#808080;dashed=1;" vertex="1" parent="1">
          <mxGeometry x="260" y="700" width="120" height="60" as="geometry" />
        </mxCell>
        <mxCell id="X41n3RMcrtdXLVw2FXBI-35" value="IDaaS" style="ellipse;shape=cloud;whiteSpace=wrap;html=1;fillColor=#f5f5f5;fontColor=#808080;strokeColor=#808080;dashed=1;" vertex="1" parent="1">
          <mxGeometry x="430" y="190" width="120" height="80" as="geometry" />
        </mxCell>
        <mxCell id="X41n3RMcrtdXLVw2FXBI-39" value="" style="swimlane;startSize=0;" vertex="1" parent="1">
          <mxGeometry x="-120" y="80" width="200" height="140" as="geometry" />
        </mxCell>
        <mxCell id="X41n3RMcrtdXLVw2FXBI-31" value="" style="rounded=0;whiteSpace=wrap;html=1;fillColor=#d5e8d4;strokeColor=#82b366;" vertex="1" parent="X41n3RMcrtdXLVw2FXBI-39">
          <mxGeometry x="10" y="20" width="20" height="20" as="geometry" />
        </mxCell>
        <mxCell id="X41n3RMcrtdXLVw2FXBI-32" value="= Microservicio Dockerizado" style="text;html=1;align=left;verticalAlign=middle;whiteSpace=wrap;rounded=0;" vertex="1" parent="X41n3RMcrtdXLVw2FXBI-39">
          <mxGeometry x="40" y="15" width="160" height="30" as="geometry" />
        </mxCell>
        <mxCell id="X41n3RMcrtdXLVw2FXBI-33" value="" style="rounded=0;whiteSpace=wrap;html=1;fillColor=#ffe6cc;strokeColor=#d79b00;" vertex="1" parent="X41n3RMcrtdXLVw2FXBI-39">
          <mxGeometry x="10" y="60" width="20" height="20" as="geometry" />
        </mxCell>
        <mxCell id="X41n3RMcrtdXLVw2FXBI-34" value="= Funcion Serverless" style="text;html=1;align=left;verticalAlign=middle;whiteSpace=wrap;rounded=0;" vertex="1" parent="X41n3RMcrtdXLVw2FXBI-39">
          <mxGeometry x="40" y="55" width="160" height="30" as="geometry" />
        </mxCell>
        <mxCell id="X41n3RMcrtdXLVw2FXBI-37" value="" style="rounded=0;whiteSpace=wrap;html=1;fillColor=#f5f5f5;strokeColor=#808080;fontColor=#333333;dashed=1;" vertex="1" parent="X41n3RMcrtdXLVw2FXBI-39">
          <mxGeometry x="10" y="100" width="20" height="20" as="geometry" />
        </mxCell>
        <mxCell id="X41n3RMcrtdXLVw2FXBI-38" value="= No Implementado" style="text;html=1;align=left;verticalAlign=middle;whiteSpace=wrap;rounded=0;" vertex="1" parent="X41n3RMcrtdXLVw2FXBI-39">
          <mxGeometry x="40" y="95" width="160" height="30" as="geometry" />
        </mxCell>
        <mxCell id="X41n3RMcrtdXLVw2FXBI-40" style="edgeStyle=orthogonalEdgeStyle;rounded=0;orthogonalLoop=1;jettySize=auto;html=1;dashed=1;shadow=1;strokeColor=#808080;" edge="1" parent="1" source="X41n3RMcrtdXLVw2FXBI-8" target="X41n3RMcrtdXLVw2FXBI-28">
          <mxGeometry relative="1" as="geometry">
            <mxPoint x="570" y="580" as="sourcePoint" />
            <mxPoint x="470" y="680" as="targetPoint" />
            <Array as="points">
              <mxPoint x="490" y="730" />
            </Array>
          </mxGeometry>
        </mxCell>
      </root>
    </mxGraphModel>
  </diagram>
</mxfile>
